<svg width="33" height="31" viewBox="0 0 33 31" fill="none" xmlns="http://www.w3.org/2000/svg">
<path d="M30.0217 23.6646C30.0489 23.983 29.8004 24.2566 29.4841 24.2566H3.46875C3.15324 24.2566 2.90504 23.9843 2.93108 23.6665L4.79541 0.912269C4.81862 0.629618 5.05238 0.412109 5.33323 0.412109H27.5421C27.8221 0.412109 28.0556 0.628527 28.0796 0.910361L30.0217 23.6646Z" fill="#1DCF65"/>
<path d="M32.0348 29.6014C32.0674 29.9985 31.7571 30.339 31.3628 30.339H1.53042C1.13694 30.339 0.826957 30.0002 0.858117 29.6037L2.99979 2.34718C3.02772 1.9927 3.3203 1.71973 3.67209 1.71973H29.1318C29.4828 1.71973 29.7751 1.99161 29.804 2.34499L32.0348 29.6014Z" fill="url(#paint0_linear_150_362)"/>
<path d="M15.9227 21.6953C12.0398 21.6953 8.88086 17.8631 8.88086 13.1528C8.88086 12.9075 9.07767 12.7085 9.32061 12.7085C9.56355 12.7085 9.76035 12.9073 9.76035 13.1528C9.76035 17.3732 12.5248 20.8067 15.9229 20.8067C19.3209 20.8067 22.0854 17.3732 22.0854 13.1528C22.0854 12.9075 22.2822 12.7085 22.5252 12.7085C22.7681 12.7085 22.9649 12.9073 22.9649 13.1528C22.9648 17.8631 19.8057 21.6953 15.9227 21.6953Z" fill="white"/>
<path d="M20.2576 13.0337C20.1451 13.0337 20.0326 12.9904 19.9467 12.9036C19.7749 12.7301 19.7749 12.4488 19.9467 12.2753L22.2255 9.97292C22.3079 9.88966 22.4198 9.84277 22.5364 9.84277C22.6531 9.84277 22.765 9.88952 22.8474 9.97292L25.104 12.2529C25.2757 12.4264 25.2757 12.7077 25.104 12.8812C24.9323 13.0546 24.6538 13.0547 24.4821 12.8812L22.5363 10.9155L20.5685 12.9036C20.4826 12.9904 20.3701 13.0337 20.2576 13.0337Z" fill="white"/>
<defs>
<linearGradient id="paint0_linear_150_362" x1="25.8733" y1="26.3337" x2="7.51325" y2="4.9008" gradientUnits="userSpaceOnUse">
<stop stop-color="#52D67A"/>
<stop offset="1" stop-color="#5AEE87"/>
</linearGradient>
</defs>
</svg>
